<?xml version="1.0" encoding="iso-8859-1"?>
<!-- Uploaded to: SVG Repo, www.svgrepo.com, Generator: SVG Repo Mixer Tools -->
<svg version="1.1" id="Layer_1" xmlns="http://www.w3.org/2000/svg" xmlns:xlink="http://www.w3.org/1999/xlink" 
	 viewBox="0 0 511.987 511.987" xml:space="preserve">
<rect x="173.298" y="109.437" transform="matrix(0.7071 -0.7071 0.7071 0.7071 -35.92 285.0202)" style="fill:#919CB0;" width="305.584" height="152.865"/>
<rect x="22.561" y="323.841" transform="matrix(0.7071 -0.7071 0.7071 0.7071 -224.8603 206.7762)" style="fill:#BDC4D0;" width="229.22" height="101.955"/>
<path style="fill:#573A32;" d="M425.122,14.893c-6.588,6.588-10.778,14.592-12.988,23.006l-14.003-14.003
	c-9.941-9.941-26.052-9.941-35.994,0l-197.99,197.973c-9.941,9.941-9.941,26.052,0,35.994L20.164,401.846
	c-9.941,9.941-9.941,26.052,0,35.994l1.655,1.655c-3.84,1.818-7.484,4.173-10.658,7.339c-14.882,14.882-14.882,39.108,0,53.99
	s39.108,14.882,53.99,0c3.174-3.174,5.521-6.818,7.339-10.658l1.655,1.655c9.941,9.941,26.061,9.941,35.994,0l143.983-143.983
	c9.941,9.941,26.061,9.941,35.994,0l197.982-197.982c9.941-9.941,9.941-26.052,0-35.994L474.095,99.86
	c8.414-2.219,16.418-6.409,23.006-12.988c19.849-19.849,19.849-52.147,0-71.996C477.269-4.955,444.971-4.964,425.122,14.893z
	 M47.164,482.844c-4.966,4.966-13.03,4.966-17.997,0s-4.966-13.03,0-17.997c4.975-4.975,13.03-4.975,17.997,0
	C52.13,469.814,52.13,477.869,47.164,482.844z M92.16,473.842l-53.999-53.999L182.144,275.86l53.999,53.999L92.16,473.842z
	 M272.137,329.859l-89.993-89.993L380.126,41.884l89.993,89.993L272.137,329.859z M479.113,68.884
	c-9.941,9.941-26.052,9.941-35.994,0c-9.941-9.941-9.941-26.061,0-35.994c9.941-9.941,26.052-9.941,35.994,0
	C489.054,42.831,489.054,58.942,479.113,68.884z"/>
</svg>